<?xml version="1.0" standalone="no"?><!DOCTYPE svg PUBLIC "-//W3C//DTD SVG 1.1//EN" "http://www.w3.org/Graphics/SVG/1.1/DTD/svg11.dtd"><svg t="1702496021209" class="icon" viewBox="0 0 1024 1024" version="1.1" xmlns="http://www.w3.org/2000/svg" p-id="2544" width="32" height="32" xmlns:xlink="http://www.w3.org/1999/xlink"><path d="M717.8 215.7c-55-55-128-85.2-205.8-85.2s-150.8 30.3-205.8 85.2c-55 55-85.2 128-85.2 205.8 0 68.5 24.3 135 68.3 187.4l198.4 272.3c5.6 7.7 14.7 12.3 24.2 12.3s18.6-4.6 24.2-12.3l198.4-272.3C778.7 556.5 803 490 803 421.5c0-77.7-30.3-150.8-85.2-205.8z" fill="#d81e06" p-id="2545"></path><path d="M512 425m-78 0a78 78 0 1 0 156 0 78 78 0 1 0-156 0Z" fill="#d81e06" p-id="2546"></path></svg>